<?xml version="1.0" encoding="utf-8"?>
<!-- Generator: Adobe Illustrator 25.4.1, SVG Export Plug-In . SVG Version: 6.00 Build 0)  -->
<svg version="1.2" baseProfile="tiny" id="Capa_1" xmlns="http://www.w3.org/2000/svg" xmlns:xlink="http://www.w3.org/1999/xlink"
	 x="0px" y="0px" viewBox="0 0 59.5 113.1" overflow="visible" xml:space="preserve">
<g>
	<path fill="#FFFFFF" d="M57.8,101.9l-2-39.2c-0.1-1.1-0.4-2.1-1.1-2.9l-1.9-2.5c-0.2-0.3-0.4-0.7-0.4-1.1
		c0.2-6.6-0.4-28.5-15.7-36.8v-1.3H39c0.5,0,0.9-0.2,1.2-0.5c0.3-0.3,0.5-0.8,0.5-1.2s-0.2-0.9-0.5-1.2c-0.3-0.3-0.7-0.5-1.1-0.5V5
		c0-0.5-0.2-0.9-0.5-1.2s-0.8-0.5-1.2-0.5H18.7c-1,0-1.8,0.8-1.8,1.8v9.5c-0.9,0.1-1.6,0.8-1.6,1.8c0,1,0.8,1.8,1.8,1.8h1.7v1.4
		C14.7,22.3,1.7,32.9,1.7,54.2v48.1c0,2,0.8,3.9,2.2,5.3c1.4,1.4,3.3,2.2,5.3,2.2h41c0,0,0,0,0,0c2.1,0,4-0.9,5.5-2.3
		C57.1,106,57.9,103.9,57.8,101.9z M20.5,14.5V6.8h15.2l0,7.7H20.5z M22.4,20.3v-2.3h10.9v2.3c0,0.7,0.4,1.3,1,1.6
		c6.2,3,10.6,9.1,12.9,18.1c1.7,6.6,1.9,12.9,1.8,16c0,1.2,0.4,2.4,1.1,3.3l2,2.6c0.2,0.3,0.3,0.6,0.3,0.9l2,39.2
		c0.1,1-0.3,2-0.9,2.8l-0.2,0.2c-0.7,0.8-1.8,1.3-2.9,1.3c0,0,0,0,0,0h-41c-1.1,0-2.1-0.4-2.8-1.2c-0.8-0.8-1.2-1.8-1.2-2.8V54.1
		c-0.1-6.3,1.3-12.6,4.1-18.2c2.8-5.6,7-10.5,12.2-14.1C22,21.5,22.4,20.9,22.4,20.3z"/>
	<path fill="#FFFFFF" d="M35.5,63.1c0.2,1.2,0.9,2.3,1.8,3.1c0.9,0.8,2.1,1.2,3.3,1.2c0,0,0.1,0,0.1,0c0.3,0,0.6,0,0.9-0.1
		c1.4-0.3,2.5-1,3.3-2.1c0.8-1.1,1.1-2.5,0.9-3.9L41,35c-0.2-1.4-1-2.7-2.1-3.5c-1.2-0.8-2.6-1.2-4-0.9c-1.4,0.3-2.7,1.1-3.4,2.3
		c-0.8,1.2-1,2.7-0.7,4.1L35.5,63.1z M34.4,34.9c0.3-0.4,0.7-0.6,1.1-0.7c0,0,0.1,0,0.1,0c0.1,0,0.1,0,0.2,0c0,0,0,0,0,0
		c0.8,0,1.5,0.6,1.7,1.4l4.8,26.4c0.1,0.4,0,0.9-0.3,1.3l0,0c-0.2,0.4-0.6,0.6-1.1,0.7c-0.4,0.1-0.9,0-1.3-0.3
		C39.3,63.4,39,63,39,62.5l-4.8-26.4C34,35.7,34.1,35.2,34.4,34.9z"/>
</g>
</svg>
