<?xml version="1.0" encoding="utf-8"?>
<!-- Generator: Adobe Illustrator 25.4.1, SVG Export Plug-In . SVG Version: 6.00 Build 0)  -->
<svg version="1.2" baseProfile="tiny" id="Capa_1" xmlns="http://www.w3.org/2000/svg" xmlns:xlink="http://www.w3.org/1999/xlink"
	 x="0px" y="0px" viewBox="0 0 74.7 108.3" overflow="visible" xml:space="preserve">
<g>
	<path fill="#FFFFFF" d="M49.7,8.4c-0.4,0.3-0.8,0.6-1.2,0.9C48.8,9,49.2,8.6,49.7,8.4z"/>
	<path fill="#FFFFFF" d="M51.5,7.2c-0.5,0.3-0.9,0.5-1.4,0.8C50.6,7.7,51.1,7.4,51.5,7.2z"/>
	<path fill="#FFFFFF" d="M61.2,3.5c-0.3,0.1-0.6,0.1-0.9,0.2C60.6,3.7,60.9,3.6,61.2,3.5z"/>
	<path fill="#FFFFFF" d="M47.9,9.7c-0.3,0.3-0.6,0.6-0.9,0.9C47.3,10.3,47.6,10,47.9,9.7z"/>
	<path fill="#FFFFFF" d="M53.6,6.1c-0.5,0.2-1,0.5-1.5,0.7C52.6,6.6,53.1,6.3,53.6,6.1z"/>
	<path fill="#FFFFFF" d="M22.6,6.8c-0.5-0.3-1-0.5-1.4-0.7C21.7,6.3,22.1,6.6,22.6,6.8z"/>
	<path fill="#FFFFFF" d="M8.9,73.7h2.5l0,0l6.8,30.8c0.2,0.8,0.9,1.4,1.7,1.4h34.9c0.8,0,1.6-0.6,1.7-1.4l6.8-30.8h2.5
		c1,0,1.8-0.8,1.8-1.8l0-11.6c0-1-0.8-1.8-1.8-1.8H39.1v0l0-12.9c0.8-4.8,3-9.3,6.4-13.1l0,0l0,0c1.8,1.2,4,1.8,6.4,1.8
		c2.2,0,4.4-0.5,6.6-1.4c2.3-1,4.4-2.4,6.2-4.2c8.6-8.6,8.5-24,8.5-24.7c0-1-0.8-1.7-1.7-1.7h0c0,0,0,0-0.1,0c-1.2,0-4.9,0.1-9.4,1
		C59,4,56.3,4.9,54,5.9c-2.9,1.3-5.3,3-7.3,4.9c-2.8,2.8-4.7,6.3-5.3,9.9c-0.7,3.6-0.1,6.9,1.6,9.4l0,0l0,0c-2.4,2.6-4.3,5.6-5.6,9
		l0,0l0,0c-1.3-3.3-3.2-6.4-5.6-9l0,0l0,0c1.7-2.5,2.3-5.8,1.6-9.4c-0.7-3.6-2.6-7.1-5.3-9.9l0,0c-2-1.9-4.4-3.6-7.3-4.9
		c-2.3-1.1-5-1.9-7.8-2.5c-4.5-1-8.3-1-9.4-1c0,0-0.1,0-0.1,0h0c-1,0-1.7,0.8-1.7,1.7c0,0.4,0,4.4,1,9.3c0.6,2.9,1.4,5.6,2.5,7.9
		c1.3,2.9,3,5.4,5,7.4c1.8,1.8,3.9,3.2,6.2,4.2c2.2,0.9,4.5,1.4,6.6,1.4c2.4,0,4.6-0.6,6.4-1.8l0,0l0,0c3.3,3.7,5.5,8.2,6.4,13v13
		H8.9c-1,0-1.8,0.8-1.8,1.8V72C7.1,72.9,7.9,73.7,8.9,73.7z M67.7,10.3l1.6-1.6l0,0c-0.1,0.5-0.1,1-0.2,1.6l0,0L67.7,10.3L67.7,10.3
		z M65.1,6.4L65.1,6.4c0.6-0.1,1.1-0.2,1.6-0.2l0,0l0,0l-1.6,1.6V6.4z M64.1,13.9h4.2l0,0c-0.3,1.3-0.7,2.5-1.1,3.7l0,0h-6.9l0,0
		L64.1,13.9z M57.9,8.2L57.9,8.2c1.2-0.4,2.4-0.8,3.7-1.1l0,0v4.2l-3.7,3.7V8.2z M65.8,21.1L65.8,21.1c-0.6,1.2-1.4,2.4-2.4,3.7l0,0
		H53.2l0,0l3.7-3.7H65.8z M50.6,12.1L50.6,12.1c1.3-1,2.5-1.8,3.7-2.4l0,0v8.9l-3.7,3.7V12.1z M48,30l1.6-1.6h9.8l0,0
		c-1.9,1.2-4,2.1-6,2.4c-0.6,0.1-1.1,0.1-1.6,0.1c-0.4,0-0.9,0-1.3-0.1c0,0,0,0,0,0c-0.4-0.1-0.9-0.2-1.3-0.3c0,0-0.1,0-0.1,0
		C48.8,30.3,48.4,30.2,48,30L48,30L48,30z M44.7,22.1c0.3-2,1.1-4.1,2.4-6l0,0v9.8l-1.6,1.6l0,0C44.7,26,44.4,24.1,44.7,22.1z
		 M20.4,9.7L20.4,9.7c1.2,0.6,2.4,1.4,3.7,2.4l0,0v10.2l0,0l-3.7-3.7V9.7z M13.1,7.1L13.1,7.1c1.3,0.3,2.5,0.7,3.7,1.1l0,0v6.8l0,0
		l-3.7-3.7V7.1z M8,6.2c0.4,0,1,0.1,1.5,0.2l0,0v1.4l0,0L8,6.2L8,6.2z M5.7,10.3C5.6,9.7,5.5,9.2,5.5,8.8l0,0l0,0l1.6,1.6L5.7,10.3
		L5.7,10.3z M7.5,17.6L7.5,17.6c-0.4-1.2-0.8-2.4-1.1-3.7l0,0l4.2,0l3.7,3.7L7.5,17.6L7.5,17.6z M11.4,24.8c-1-1.3-1.8-2.5-2.4-3.7
		l0,0h8.9l3.7,3.7L11.4,24.8L11.4,24.8z M26.7,30c-0.4,0.2-0.8,0.3-1.2,0.5c0,0-0.1,0-0.1,0c-0.8,0.2-1.6,0.4-2.5,0.4
		c-0.5,0-1.1,0-1.6-0.1c-2-0.3-4.1-1.1-6-2.4l0,0h9.8L26.7,30L26.7,30z M29.3,27.5L29.3,27.5L29.3,27.5l-1.6-1.6V16l0,0
		c1.2,1.9,2.1,4,2.4,6C30.3,24.1,30,26,29.3,27.5z M59.7,73.8l-6.3,28.7h-32l0,0L15,73.7L59.7,73.8L59.7,73.8z M10.6,62.2h53.5v8
		H10.6V62.2z"/>
	<path fill="#FFFFFF" d="M24.6,8c-0.4-0.3-0.9-0.6-1.4-0.8C23.7,7.4,24.1,7.7,24.6,8z"/>
	<path fill="#FFFFFF" d="M8.5,27c-0.3-0.4-0.6-0.8-0.9-1.2C7.9,26.2,8.2,26.6,8.5,27z"/>
	<path fill="#FFFFFF" d="M57.2,4.6c-0.3,0.1-0.5,0.2-0.8,0.3C56.7,4.8,57,4.7,57.2,4.6z"/>
	<path fill="#FFFFFF" d="M55.3,5.4c-0.2,0.1-0.4,0.2-0.6,0.2C54.9,5.5,55.1,5.4,55.3,5.4z"/>
	<path fill="#FFFFFF" d="M59.2,4c-0.4,0.1-0.7,0.2-1.1,0.3C58.5,4.2,58.8,4.1,59.2,4z"/>
	<path fill="#FFFFFF" d="M9.8,28.5c-0.3-0.3-0.6-0.6-0.9-1C9.2,27.8,9.5,28.2,9.8,28.5z"/>
	<path fill="#FFFFFF" d="M3.3,16.2c0.1,0.2,0.1,0.4,0.2,0.7C3.4,16.6,3.3,16.4,3.3,16.2z"/>
	<path fill="#FFFFFF" d="M3.9,18.2c0.1,0.2,0.1,0.4,0.2,0.6C4,18.6,3.9,18.4,3.9,18.2z"/>
	<path fill="#FFFFFF" d="M2.8,14.1c0,0.2,0.1,0.4,0.2,0.7C2.9,14.6,2.8,14.4,2.8,14.1z"/>
	<path fill="#FFFFFF" d="M5.3,21.8c0.2,0.5,0.5,0.9,0.7,1.4C5.8,22.7,5.5,22.2,5.3,21.8z"/>
	<path fill="#FFFFFF" d="M6.4,23.8c0.3,0.5,0.5,0.9,0.9,1.4C6.9,24.8,6.7,24.3,6.4,23.8z"/>
	<path fill="#FFFFFF" d="M4.6,20.1c0.1,0.2,0.2,0.4,0.2,0.6C4.8,20.5,4.7,20.3,4.6,20.1z"/>
	<path fill="#FFFFFF" d="M14.3,3.7c-0.3-0.1-0.5-0.1-0.8-0.2C13.8,3.6,14.1,3.6,14.3,3.7z"/>
	<path fill="#FFFFFF" d="M27.7,10.5c-0.3-0.3-0.6-0.6-0.9-0.9C27.1,10,27.4,10.2,27.7,10.5z"/>
	<path fill="#FFFFFF" d="M26.3,9.3c-0.4-0.3-0.8-0.6-1.2-0.9C25.5,8.6,25.9,8.9,26.3,9.3z"/>
	<path fill="#FFFFFF" d="M18.3,4.9c-0.3-0.1-0.5-0.2-0.8-0.3C17.8,4.7,18,4.8,18.3,4.9z"/>
	<path fill="#FFFFFF" d="M16.6,4.3c-0.4-0.1-0.7-0.2-1.1-0.3C15.9,4.1,16.3,4.2,16.6,4.3z"/>
	<path fill="#FFFFFF" d="M20,5.6c-0.2-0.1-0.4-0.2-0.6-0.2C19.7,5.4,19.8,5.5,20,5.6z"/>
</g>
</svg>
