<?xml version="1.0" encoding="utf-8"?>
<!-- Generator: Adobe Illustrator 25.4.1, SVG Export Plug-In . SVG Version: 6.00 Build 0)  -->
<svg version="1.2" baseProfile="tiny" id="Capa_1" xmlns="http://www.w3.org/2000/svg" xmlns:xlink="http://www.w3.org/1999/xlink"
	 x="0px" y="0px" viewBox="0 0 92.4 108.4" overflow="visible" xml:space="preserve">
<g>
	<path fill="#FFFFFF" d="M91.1,104.6C89.1,93.1,84,82.6,76.2,74c10.4-12.2,6.8-35.2-8.3-50.3C45.3,1.1,4.9,1.6,3.1,1.6
		c-1,0-1.8,0.8-1.8,1.8c0,1.7-0.5,42.1,22.1,64.7c9.3,9.3,21.7,14.3,32.6,14.3l0,0c6.7,0,12.9-1.9,17.6-5.8
		c7.3,8.1,12.1,17.9,13.8,28.7c0.1,0.9,0.9,1.5,1.8,1.5c0.1,0,0.2,0,0.3,0C90.5,106.6,91.2,105.6,91.1,104.6z M46.2,13.8
		c5.8,2.5,11.3,5.7,16.2,9.9c-0.1,0.2-0.1,0.4-0.1,0.7l0,0v35.6l-16-16V13.8z M26.6,7.7c5.1,1,10.6,2.5,16.1,4.6c0,0.1,0,0.1,0,0.2
		v27.8l-16-16V7.7z M23,7.1c0,0.1,0,0.1,0,0.2h0v13.4L7.7,5.4C11.3,5.5,16.7,6,23,7.1z M6.8,23.2C5.7,16.9,5.3,11.5,5.1,7.9
		l15.3,15.3L7,23.2C6.9,23.2,6.9,23.2,6.8,23.2z M12.1,42.9c-2.1-5.5-3.6-11-4.6-16.1l0,0H24l16,16H12.3
		C12.2,42.8,12.2,42.9,12.1,42.9z M23.4,62.6c-4.2-4.9-7.4-10.4-9.9-16.2h30.1l16,16H24.1C23.9,62.5,23.6,62.5,23.4,62.6z
		 M26.7,66.1h36.6l7.8,7.8C60.4,82.7,40.4,79.3,26.7,66.1z M65.9,63.6V26.9c13.2,13.7,16.6,33.7,7.8,44.5v0L65.9,63.6z"/>
	<polygon fill="#FFFFFF" points="42.6,12.5 42.6,12.5 42.6,12.5 	"/>
</g>
</svg>
