<?xml version="1.0" encoding="utf-8"?>
<!-- Generator: Adobe Illustrator 25.4.1, SVG Export Plug-In . SVG Version: 6.00 Build 0)  -->
<svg version="1.2" baseProfile="tiny" id="Capa_1" xmlns="http://www.w3.org/2000/svg" xmlns:xlink="http://www.w3.org/1999/xlink"
	 x="0px" y="0px" viewBox="0 0 105.6 105.6" overflow="visible" xml:space="preserve">
<g>
	<path fill="#FFFFFF" d="M47.9,37.9c-0.2,0.1-0.4,0.2-0.6,0.4c-0.2,0.2-0.3,0.4-0.4,0.6c-0.1,0.2-0.1,0.5-0.1,0.7s0,0.5,0.1,0.7
		c0.1,0.2,0.2,0.4,0.4,0.6c0.2,0.2,0.4,0.3,0.6,0.4c0.2,0.1,0.5,0.1,0.7,0.1h6h0.7V48c0,0.2,0,0.5,0.1,0.7c0.1,0.2,0.2,0.4,0.4,0.6
		c0.2,0.2,0.4,0.3,0.6,0.4c0.4,0.2,0.9,0.2,1.4,0c0.2-0.1,0.4-0.2,0.6-0.4c0.2-0.2,0.3-0.4,0.4-0.6c0.1-0.2,0.1-0.5,0.1-0.7v-6.7
		h6.7c0.2,0,0.5,0,0.7-0.1c0.2-0.1,0.4-0.2,0.6-0.4c0.2-0.2,0.3-0.4,0.4-0.6c0.1-0.2,0.1-0.5,0.1-0.7s0-0.5-0.1-0.7
		c-0.1-0.2-0.2-0.4-0.4-0.6c-0.2-0.2-0.4-0.3-0.6-0.4c-0.2-0.1-0.4-0.1-0.7-0.1h-6.7V31c0-0.2,0-0.5-0.1-0.7
		c-0.1-0.2-0.2-0.4-0.4-0.6c-0.2-0.2-0.4-0.3-0.6-0.4c-0.2-0.1-0.4-0.1-0.7-0.1l0,0c-0.2,0-0.5,0.1-0.7,0.1
		c-0.2,0.1-0.4,0.2-0.6,0.4c-0.2,0.2-0.3,0.4-0.4,0.6c-0.1,0.2-0.1,0.5-0.1,0.7v6.7h-6.7C48.4,37.8,48.1,37.8,47.9,37.9z"/>
	<path fill="#FFFFFF" d="M61.2,19.4c0.2,0.2,0.4,0.3,0.6,0.4c0.2,0.1,0.5,0.1,0.7,0.1h2.4h0.7V23c0,0.2,0,0.5,0.1,0.7
		c0.1,0.2,0.2,0.4,0.4,0.6c0.2,0.2,0.4,0.3,0.6,0.4c0.4,0.2,0.9,0.2,1.4,0c0.2-0.1,0.4-0.2,0.6-0.4c0.2-0.2,0.3-0.4,0.4-0.6
		c0.1-0.2,0.1-0.5,0.1-0.7v-3.1h3.1c0.2,0,0.5,0,0.7-0.1c0.2-0.1,0.4-0.2,0.6-0.4c0.2-0.2,0.3-0.4,0.4-0.6c0.1-0.2,0.1-0.5,0.1-0.7
		c0-0.2,0-0.5-0.1-0.7c-0.1-0.2-0.2-0.4-0.4-0.6c-0.2-0.2-0.4-0.3-0.6-0.4c-0.2-0.1-0.4-0.1-0.7-0.1h-3.1v-3.1c0-0.2,0-0.5-0.1-0.7
		c-0.1-0.2-0.2-0.4-0.4-0.6c-0.2-0.2-0.4-0.3-0.6-0.4c-0.2-0.1-0.5-0.1-0.7-0.1v0c-0.2,0-0.5,0.1-0.7,0.1c-0.2,0.1-0.4,0.2-0.6,0.4
		c-0.2,0.2-0.3,0.4-0.4,0.6c-0.1,0.2-0.1,0.5-0.1,0.7v3.1h-3.1c-0.3,0-0.5,0-0.7,0.1c-0.2,0.1-0.4,0.2-0.6,0.4
		c-0.2,0.2-0.3,0.4-0.4,0.6c-0.1,0.2-0.1,0.5-0.1,0.7s0,0.5,0.1,0.7C60.9,19.1,61,19.3,61.2,19.4z"/>
	<path fill="#FFFFFF" d="M40.6,10.4c0.2,0.2,0.4,0.3,0.6,0.4c0.2,0.1,0.5,0.1,0.7,0.1h2.4h0.7V14c0,0.2,0,0.5,0.1,0.7
		c0.1,0.2,0.2,0.4,0.4,0.6c0.2,0.2,0.4,0.3,0.6,0.4c0.4,0.2,0.9,0.2,1.4,0c0.2-0.1,0.4-0.2,0.6-0.4c0.2-0.2,0.3-0.4,0.4-0.6
		c0.1-0.2,0.1-0.5,0.1-0.7v-3.1h3.1c0.3,0,0.5,0,0.7-0.1c0.2-0.1,0.4-0.2,0.6-0.4c0.2-0.2,0.3-0.4,0.4-0.6c0.1-0.2,0.1-0.5,0.1-0.7
		c0-0.2,0-0.5-0.1-0.7C53.3,8.2,53.2,8,53,7.8c-0.2-0.2-0.4-0.3-0.6-0.4c-0.2-0.1-0.4-0.1-0.7-0.1h-3.1V4.2c0-0.2,0-0.5-0.1-0.7
		c-0.1-0.2-0.2-0.4-0.4-0.6c-0.2-0.2-0.4-0.3-0.6-0.4c-0.2-0.1-0.5-0.1-0.7-0.1v0c-0.2,0-0.5,0.1-0.7,0.1c-0.2,0.1-0.4,0.2-0.6,0.4
		c-0.2,0.2-0.3,0.4-0.4,0.6c-0.1,0.2-0.1,0.5-0.1,0.7v3.1h-3.1c-0.2,0-0.5,0-0.7,0.1c-0.2,0.1-0.4,0.2-0.6,0.4
		c-0.2,0.2-0.3,0.4-0.4,0.6c-0.1,0.2-0.1,0.5-0.1,0.7c0,0.2,0,0.5,0.1,0.7C40.3,10,40.5,10.2,40.6,10.4z"/>
	<path fill="#FFFFFF" d="M34.4,69h35.4l0.1,0.4c0.5,1.4,0.3,3-0.4,4.5c-1.1,2-2.9,3.1-4,3c-0.1,0-0.2,0-0.2,0l-22.6,0
		c-0.5,0-1,0.2-1.3,0.5c-0.3,0.3-0.5,0.8-0.5,1.3c0,0.5,0.2,0.9,0.5,1.3s0.8,0.5,1.3,0.5l22.1,0l0.6,0c2.8,0.2,5.5-1.6,7.2-4.8
		c1.4-2.6,2.1-6.4-0.2-9.4c-0.3-0.5-0.9-0.7-1.4-0.7l-36.6,0c-4.3,0-9.7,0.5-14,4L3,83.6c-0.4,0.3-0.6,0.7-0.6,1.2
		c0,0.5,0.1,0.9,0.4,1.3c0.6,0.8,1.8,0.9,2.5,0.2l17.3-14.2C25.3,70,28.9,69,34.4,69z"/>
	<path fill="#FFFFFF" d="M97,47.7L97,47.7c-1.6,0-3.2,0.7-4.3,1.9l-0.4,0.4l0,0c-0.9,0.9-3.6,3.5-6.4,6.4l-1.5,1.5
		c-3,3-5.9,5.9-6.8,6.9C77.2,65.1,77,65.6,77,66c0,0.5,0.2,0.9,0.6,1.2c0.3,0.3,0.8,0.5,1.3,0.5c0.5,0,0.9-0.2,1.2-0.6
		c0.6-0.7,3.3-3.4,8.1-8.2c3.5-3.5,6.8-6.8,6.8-6.8l0.1-0.1c0.5-0.5,1.1-0.7,1.7-0.7c1.3,0,2.7,1.2,2.7,3.3c0,0.7-0.2,1.3-0.5,1.9
		l0,0L99,56.7c-1.5,1.8-14.8,17.7-23.5,27.9c-3.5,4.1-7.2,6.1-11.4,6.1H36c-3.7,0-6.3,0.9-8.3,2.8l-6.7,6.6
		c-0.4,0.3-0.6,0.8-0.6,1.3c0,0.5,0.2,0.9,0.5,1.3c0.3,0.3,0.8,0.5,1.3,0.5c0,0,0,0,0,0c0.5,0,0.9-0.2,1.3-0.5l6.7-6.6
		c1.5-1.5,3.1-1.8,5.8-1.8h28.2c5.2,0,9.9-2.5,14.1-7.4c9.1-10.7,23.4-27.9,23.6-28l0-0.1c0.9-1.3,1.4-2.8,1.4-4.3
		C103.3,50.8,100.4,47.7,97,47.7z"/>
</g>
</svg>
