<?xml version="1.0" encoding="utf-8"?>
<!-- Generator: Adobe Illustrator 25.4.1, SVG Export Plug-In . SVG Version: 6.00 Build 0)  -->
<svg version="1.2" baseProfile="tiny" id="Capa_1" xmlns="http://www.w3.org/2000/svg" xmlns:xlink="http://www.w3.org/1999/xlink"
	 x="0px" y="0px" viewBox="0 0 111 97.8" overflow="visible" xml:space="preserve">
<g>
	<path fill="#FFFFFF" d="M84.4,82.8c1,0,1.8-0.8,1.8-1.8v-4.6h4.6c1,0,1.8-0.8,1.8-1.8c0-1-0.8-1.8-1.8-1.8h-4.6v-4.6
		c0-1-0.8-1.8-1.8-1.8c-1,0-1.8,0.8-1.8,1.8v4.6H78c-1,0-1.8,0.8-1.8,1.8c0,1,0.8,1.8,1.8,1.8h4.6V81C82.6,82,83.4,82.8,84.4,82.8z"
		/>
	<path fill="#FFFFFF" d="M100.1,10.6C88.7-0.7,70.3-0.6,59,10.7l-3.5,3.5L52,10.7c-11.3-11.3-29.8-11.3-41.2,0
		C-0.4,22-0.3,40.4,11,51.7L54.2,95c0.7,0.7,1.9,0.7,2.6,0l9.5-9.5l1,1.3c4,5.5,10.4,8.8,17.1,8.8c11.6,0,21.1-9.5,21.1-21.1
		c0-6.8-3.3-13.2-8.8-17.1l-1.3-1l4.7-4.7C111.4,40.4,111.4,22,100.1,10.6z M101.8,74.6c0,9.6-7.8,17.4-17.4,17.4S67,84.2,67,74.6
		s7.8-17.4,17.4-17.4S101.8,64.9,101.8,74.6z M97.5,49.2l-5.7,5.7l-0.8-0.3c-2.1-0.7-4.4-1.1-6.7-1.1c-11.6,0-21.1,9.5-21.1,21.1
		c0,2.3,0.4,4.5,1.1,6.7l0.3,0.8l-9.1,9.1l-42-42c-4.8-4.8-7.5-11.2-7.5-18c0-6.8,2.6-13.2,7.5-18c9.9-9.9,26-9.9,35.9,0.1l4.8,4.8
		c0.7,0.7,1.9,0.7,2.6,0l4.8-4.8c9.9-9.9,26.1-9.9,36,0C107.5,23.1,107.5,39.2,97.5,49.2z"/>
</g>
</svg>
