<?xml version="1.0" encoding="utf-8"?>
<!-- Generator: Adobe Illustrator 25.4.1, SVG Export Plug-In . SVG Version: 6.00 Build 0)  -->
<svg version="1.2" baseProfile="tiny" id="Capa_1" xmlns="http://www.w3.org/2000/svg" xmlns:xlink="http://www.w3.org/1999/xlink"
	 x="0px" y="0px" viewBox="0 0 99.1 108.2" overflow="visible" xml:space="preserve">
<g>
	<g>
		<path fill="#FFFFFF" d="M88.1,40.3H65.8c-1,0-1.8,0.8-1.8,1.8c0,1,0.8,1.8,1.8,1.8h22.3c1,0,1.8-0.8,1.8-1.8
			C89.9,41.1,89.1,40.3,88.1,40.3z"/>
		<path fill="#FFFFFF" d="M64.1,73.4c0,1,0.8,1.8,1.8,1.8h22.3c1,0,1.8-0.8,1.8-1.8c0-1-0.8-1.8-1.8-1.8H65.8
			C64.9,71.6,64.1,72.4,64.1,73.4z"/>
		<path fill="#FFFFFF" d="M72.7,57.6c1,0,1.8-0.8,1.8-1.8c0-1-0.8-1.8-1.8-1.8H71c-1,0-1.8,0.8-1.8,1.8c0,1,0.8,1.8,1.8,1.8H72.7z"
			/>
		<path fill="#FFFFFF" d="M83,57.6c1,0,1.8-0.8,1.8-1.8c0-1-0.8-1.8-1.8-1.8h-1.7c-1,0-1.8,0.8-1.8,1.8c0,1,0.8,1.8,1.8,1.8H83z"/>
		<path fill="#FFFFFF" d="M88.1,91.2H65.8c-1,0-1.8,0.8-1.8,1.8c0,1,0.8,1.8,1.8,1.8h22.3c1,0,1.8-0.8,1.8-1.8
			C89.9,92,89.1,91.2,88.1,91.2z"/>
		<path fill="#FFFFFF" d="M88.1,81.4H65.8c-1,0-1.8,0.8-1.8,1.8c0,1,0.8,1.8,1.8,1.8h22.3c1,0,1.8-0.8,1.8-1.8
			C89.9,82.2,89.1,81.4,88.1,81.4z"/>
		<path fill="#FFFFFF" d="M93.6,51.3c1.9-1.3,3.1-3.4,3.1-5.7V30.9c0-2.1-0.6-4.2-1.6-6c-1.1-1.8-2.6-3.4-4.4-4.4l-5.1-2.9
			c-0.5-0.3-0.8-0.8-0.8-1.4v-1.4h1.7c0.5,0,0.9-0.2,1.3-0.5c0.3-0.3,0.5-0.8,0.5-1.3V6.1c0-0.9-0.4-1.8-1-2.5c-0.7-0.7-1.5-1-2.5-1
			H69.3c-0.9,0-1.8,0.4-2.5,1c-0.6,0.6-1,1.5-1,2.5V13c0,0.5,0.2,0.9,0.5,1.3c0.3,0.3,0.8,0.5,1.3,0.5h1.7v1.4
			c0,0.6-0.3,1.1-0.8,1.4l-5.1,2.9c-1.8,1.1-3.4,2.6-4.4,4.4c-1.1,1.8-1.6,3.9-1.6,6v14.6c0,2.3,1.1,4.5,3.1,5.7l0.6,0.4
			c0.9,0.6,1.5,1.7,1.5,2.8v4.8c0,1.1-0.6,2.2-1.5,2.8l-0.6,0.4c-1.9,1.3-3.1,3.4-3.1,5.7v30.5c0,1.8,0.7,3.6,2,4.9
			c1.3,1.3,3,2,4.9,2h25.7c1.8,0,3.6-0.7,4.9-2c1.3-1.3,2-3,2-4.9V68.1c0-2.3-1.1-4.5-3.1-5.7L93.1,62c-0.9-0.6-1.5-1.7-1.5-2.8
			v-4.8c0-1.1,0.6-2.2,1.5-2.8L93.6,51.3L93.6,51.3L93.6,51.3z M84.6,6.2v5H69.3v-5H84.6z M91.1,48.7C89.2,50,88,52.1,88,54.4v4.8
			c0,2.3,1.1,4.5,3.1,5.7l0.6,0.4c0.9,0.6,1.5,1.7,1.5,2.8v30.5c0,0.9-0.4,1.7-1,2.4c-0.6,0.6-1.5,1-2.4,1H64.1
			c-0.9,0-1.7-0.4-2.4-1c-0.6-0.6-1-1.5-1-2.4V68.1c0-1.1,0.6-2.2,1.5-2.8l0.5-0.3v0l0.1-0.1c1.9-1.3,3.1-3.4,3.1-5.7v-4.8
			c0-2.3-1.1-4.5-3.1-5.7l-0.6-0.4c-0.9-0.6-1.5-1.7-1.5-2.8V30.9c0-0.8,0.1-1.6,0.4-2.4c0.1-0.8,1-2.4,1.7-3.1
			c0.6-0.8,1.4-1.4,2.3-1.9l5.1-2.9l0.2-0.1h0c1.5-0.9,2.4-2.6,2.4-4.4v-1.4h8.5v1.4c0,0.9,0.2,1.8,0.7,2.6c0.5,0.8,1.1,1.4,1.9,1.9
			l5.1,2.9c1.9,1.1,3.2,2.8,3.9,4.8c0.3,0.9,0.4,2.6,0.4,3.4v13.7c0,1.1-0.6,2.2-1.5,2.8L91.1,48.7z"/>
	</g>
	<path fill="#FFFFFF" d="M48.5,39.2l-4-5.6v-1.9c0.5,0,0.9-0.1,1.3-0.5c0.4-0.3,0.6-0.8,0.6-1.3c0-0.5-0.2-1-0.6-1.3
		c-0.4-0.3-0.9-0.5-1.3-0.5h-5.2c2.1-2.4,2.1-6.1-0.2-8.4c-2.4-2.4-6.2-2.4-8.6,0l-8.4,8.4H6.8c-0.1,0-0.1,0-0.2,0
		C5.6,28.3,5,29.1,5,30c0,0.9,0.8,1.6,1.7,1.7v2l-4,5.6c-0.2,0.3-0.3,0.7-0.3,1v58.4c0,0.5,0.2,1,0.6,1.3l6,5.2
		c0.3,0.3,0.7,0.4,1.1,0.4c0,0,0,0,0,0h30.9c0,0,0,0,0,0c0.4,0,0.8-0.1,1.1-0.4l6-5.2c0.4-0.3,0.6-0.8,0.6-1.3V40.2
		C48.9,39.9,48.8,39.5,48.5,39.2z M44.3,98.7l-3.9,3.3H10.9L7,98.7H44.3z M32.5,22.9l0.6-0.6c0.5-0.5,1.1-0.8,1.8-0.8c0,0,0,0,0,0
		c0.7,0,1.3,0.3,1.8,0.7c0.5,0.5,0.7,1.1,0.7,1.8c0,0.7-0.3,1.3-0.7,1.8l-0.6,0.6L32.5,22.9z M27.2,28.2l2.8-2.8l2.8,2.8H27.2z
		 M45.3,42.9v52.2H5.9V42.9H45.3z M41.3,35.2l2.9,4.1H7l2.9-4.1c0.2-0.3,0.3-0.7,0.3-1v-2.5H41v2.5C41,34.6,41.1,34.9,41.3,35.2z"/>
</g>
</svg>
