<?xml version="1.0" encoding="utf-8"?>
<!-- Generator: Adobe Illustrator 25.4.1, SVG Export Plug-In . SVG Version: 6.00 Build 0)  -->
<svg version="1.2" baseProfile="tiny" id="Capa_1" xmlns="http://www.w3.org/2000/svg" xmlns:xlink="http://www.w3.org/1999/xlink"
	 x="0px" y="0px" viewBox="0 0 107.8 107.8" overflow="visible" xml:space="preserve">
<g>
	<path fill="#FFFFFF" d="M71.1,92.2c1,0,1.8-0.8,1.8-1.8c0-0.5-0.2-0.9-0.5-1.3c-0.3-0.3-0.8-0.5-1.2-0.5c0,0,0,0,0,0
		c-1,0-1.8,0.8-1.8,1.8C69.3,91.4,70.1,92.2,71.1,92.2z"/>
	<path fill="#FFFFFF" d="M103.3,64.6C103.3,64.6,103.3,64.6,103.3,64.6c-1,0-1.8,0.8-1.8,1.8c0,1,0.8,1.8,1.8,1.8
		c1,0,1.8-0.8,1.8-1.8c0-0.5-0.2-0.9-0.5-1.2C104.2,64.8,103.8,64.6,103.3,64.6z"/>
	<path fill="#FFFFFF" d="M71.1,11.3c-1,0-1.8,0.8-1.8,1.8c0,1,0.8,1.8,1.8,1.8c1,0,1.8-0.8,1.8-1.8C72.9,12.1,72.1,11.3,71.1,11.3z"
		/>
	<path fill="#FFFFFF" d="M36.7,11.3c-1,0-1.8,0.8-1.8,1.8c0,1,0.8,1.8,1.8,1.8c1,0,1.8-0.8,1.8-1.8C38.5,12.1,37.7,11.3,36.7,11.3z"
		/>
	<path fill="#FFFFFF" d="M36.7,92.2c1,0,1.8-0.8,1.8-1.8c0-1-0.8-1.8-1.8-1.8c-1,0-1.8,0.8-1.8,1.8C34.9,91.4,35.7,92.2,36.7,92.2z"
		/>
	<path fill="#FFFFFF" d="M96.4,102.8c2-1,4.4-1.6,6.9-1.6c1,0,1.8-0.8,1.8-1.8l0-24.4c0-1-0.8-1.8-1.8-1.8c-1,0-1.8,0.8-1.8,1.8
		v22.8l-0.3,0c-1.4,0.2-2.9,0.5-4.2,0.9l-0.5,0.2V8.2l0.2-0.1c1.4-0.6,2.8-1.1,4.4-1.3l0.4-0.1v51c0,1,0.8,1.8,1.8,1.8
		c1,0,1.8-0.8,1.8-1.8V4.9c0-0.4-0.2-0.9-0.5-1.3c-0.4-0.3-0.8-0.5-1.3-0.5c-3,0-6,0.7-8.5,2l-0.9,0.4c-3.5,1.7-7.8,1.9-11.5,0.7
		l-0.1,0c-0.9-0.3-1.6-0.6-2.2-0.9l-1.3-0.7C73.6,2,66.8,2,61.6,4.7l-1.3,0.7c-0.1,0-0.2,0.1-0.3,0.1l-0.4,0.2
		c-3.5,1.6-7.8,1.8-11.5,0.5l0,0c-0.7-0.2-1.2-0.5-1.8-0.7l-1.4-0.7C39.6,2,32.8,2,27.6,4.7l-1.3,0.7c-0.2,0.1-0.4,0.2-0.6,0.3
		l-0.4,0.2C21.7,7.3,17.4,7.4,13.7,6h-0.3l0-0.1c-0.4-0.2-0.8-0.3-1.2-0.5H12l0-0.1l-0.3-0.2C9.6,4,7.1,3.4,4.6,3.2
		c-0.5,0-1,0.1-1.3,0.5C2.9,4,2.7,4.4,2.7,4.9v94.6c0,0.9,0.7,1.7,1.6,1.8c2,0.2,4,0.7,5.7,1.6l0.5,0.3c0.6,0.3,1.2,0.5,1.8,0.8h0.1
		l0.1,0.1c4.4,1.6,9.8,1.5,14-0.3l0.1-0.1h0.1l0.2-0.1c0.3-0.1,0.7-0.3,1-0.4l1.3-0.7c4.2-2.2,9.9-2.2,14.1,0l1.3,0.7
		c0.7,0.3,1.4,0.7,2.3,1l0.1,0c2,0.7,4.1,1,6.3,1c2.7,0,5.4-0.6,7.8-1.6l0.1-0.1h0.1l0.2-0.1c0.2-0.1,0.4-0.2,0.6-0.3l1.3-0.7
		c4.2-2.2,9.9-2.2,14.1,0l1.3,0.7c0.8,0.4,1.6,0.7,2.7,1.1c4.6,1.5,10,1.1,14.2-0.9l0.1-0.1c0.1,0,0.1-0.1,0.3-0.1L96.4,102.8z
		 M11.3,99.5l-0.5-0.2c-1.3-0.6-2.7-1-4.2-1.3l-0.3-0.1v-91L6.7,7C7.9,7.3,9,7.7,10.1,8.3l0.5,0.3c0.2,0.1,0.3,0.2,0.5,0.2l0.2,0.1
		V99.5z M24.2,100.8l-0.3,0.1c-1.5,0.5-3.1,0.7-4.7,0.7c-1.4,0-2.8-0.2-4.1-0.5l-0.3-0.1V10l0.5,0.1c2.8,0.6,5.7,0.5,8.4-0.1
		l0.5-0.1V100.8z M45.7,99.7l-0.8-0.4c-2.6-1.3-5.6-2-8.7-2c-2.8,0-5.6,0.6-8,1.7l-0.5,0.2V8.6l1.5-0.7c4.2-2.2,9.9-2.2,14.1,0
		l1.3,0.7c0.3,0.1,0.6,0.3,0.9,0.4L45.7,9V99.7z M58.6,100.6l-0.3,0.1c-1.6,0.5-3.4,0.8-5.1,0.8c-1.2,0-2.5-0.1-3.7-0.4l-0.3-0.1
		V10.1l0.4,0.1c2.8,0.5,5.7,0.4,8.4-0.3l0.5-0.1V100.6z M80.1,99.9l-1.2-0.6c-2.6-1.3-5.6-2-8.7-2c0,0,0,0,0,0
		c-2.6,0-5.3,0.5-7.6,1.5L62.1,99V8.4l1.1-0.5c4.2-2.2,9.9-2.2,14.1,0l1.3,0.7c0.4,0.2,0.8,0.4,1.3,0.6l0.2,0.1V99.9z M93,100.5
		l-0.2,0.1c-1.7,0.6-3.6,0.9-5.5,0.9c-1.1,0-2.2-0.1-3.3-0.3l-0.3-0.1v-91l0.4,0.1c2.8,0.5,5.7,0.3,8.4-0.4L93,9.7V100.5z"/>
</g>
</svg>
