<?xml version="1.0" encoding="utf-8"?>
<!-- Generator: Adobe Illustrator 25.4.1, SVG Export Plug-In . SVG Version: 6.00 Build 0)  -->
<svg version="1.2" baseProfile="tiny" id="Capa_1" xmlns="http://www.w3.org/2000/svg" xmlns:xlink="http://www.w3.org/1999/xlink"
	 x="0px" y="0px" viewBox="0 0 105 103.5" overflow="visible" xml:space="preserve">
<g>
	<path fill="#FFFFFF" d="M66.1,55.5H38.8c-4.6,0-8.9,1.8-12.2,5.1c-3.3,3.3-5.1,7.6-5.1,12.2v5.8l61.9,0v-5.8c0-4.6-1.8-9-5.1-12.2
		C75.1,57.3,70.8,55.5,66.1,55.5z M79.9,75H25.1v-2.2c0-3.7,1.4-7.1,4-9.7c2.6-2.6,6-4,9.7-4h27.4c3.7,0,7.1,1.4,9.7,4
		c2.6,2.6,4,6,4,9.7L79.9,75z"/>
	<path fill="#FFFFFF" d="M52.5,47c4.3,0,8.2-1.7,11.2-4.7c3-3,4.7-7,4.7-11.3s-1.7-8.2-4.7-11.3c-3-3-7-4.7-11.3-4.7
		c-4.2,0-8.2,1.7-11.3,4.7c-3,3-4.7,7-4.7,11.2c0,4.2,1.7,8.2,4.7,11.2C44.2,45.3,48.2,47,52.5,47z M43.7,22.3
		c2.3-2.3,5.4-3.6,8.8-3.6c3.3,0,6.4,1.3,8.8,3.6c2.3,2.3,3.6,5.4,3.6,8.8s-1.3,6.4-3.6,8.8c-2.3,2.3-5.4,3.6-8.8,3.6
		c-3.3,0-6.4-1.3-8.8-3.6c-2.3-2.3-3.6-5.4-3.6-8.8S41.4,24.6,43.7,22.3z"/>
	<path fill="#FFFFFF" d="M100.3,4.6c-1.6-1.6-3.7-2.5-5.9-2.5H10.6C8.3,2.2,6.2,3,4.6,4.6c-1.6,1.6-2.5,3.7-2.5,5.9v73.7
		c0,2.2,0.9,4.3,2.5,5.9c1.6,1.6,3.7,2.4,5.9,2.4h33.4c0.6,0,1.2,0.3,1.5,0.9l3,5.4c0.5,1,1.4,1.8,2.5,2.1s2.2,0.4,3.3,0
		s1.9-1.2,2.5-2.1l3-5.4c0.3-0.5,0.9-0.9,1.5-0.9h33.3c2.2,0,4.3-0.9,5.9-2.5c1.6-1.6,2.4-3.7,2.5-5.9V10.5
		C102.8,8.3,101.9,6.2,100.3,4.6z M99.3,84.2C99.3,84.2,99.3,84.2,99.3,84.2c0,1.3-0.5,2.5-1.4,3.4c-0.9,0.9-2.1,1.4-3.4,1.4H58
		l-4,7.3c-0.3,0.5-0.9,0.9-1.5,0.9c-0.6,0-1.2-0.3-1.5-0.9L47,89H10.6c-1.3,0-2.5-0.5-3.4-1.4s-1.4-2.1-1.4-3.4V10.5
		c0-1.3,0.5-2.5,1.4-3.4c0.9-0.9,2.1-1.4,3.4-1.4h83.8c1.3,0,2.5,0.5,3.4,1.4c0.9,0.9,1.4,2.1,1.4,3.4V84.2z"/>
	<path fill="#FFFFFF" d="M89.3,20.5c-0.2-0.2-0.4-0.3-0.6-0.4C88.5,20.1,88.3,20,88,20h-3.1v-3.1c0-0.2,0-0.5-0.1-0.7
		c-0.1-0.2-0.2-0.4-0.4-0.6c-0.2-0.2-0.4-0.3-0.6-0.4c-0.2-0.1-0.5-0.1-0.7-0.1v0c-0.2,0-0.5,0.1-0.7,0.1c-0.2,0.1-0.4,0.2-0.6,0.4
		c-0.2,0.2-0.3,0.4-0.4,0.6c-0.1,0.2-0.1,0.4-0.1,0.7V20h-3.1c-0.2,0-0.5,0-0.7,0.1c-0.2,0.1-0.4,0.2-0.6,0.4
		c-0.2,0.2-0.3,0.4-0.4,0.6c-0.1,0.2-0.1,0.4-0.1,0.7c0,0.2,0,0.5,0.1,0.7c0.1,0.2,0.2,0.4,0.4,0.6c0.2,0.2,0.4,0.3,0.6,0.4
		c0.2,0.1,0.5,0.1,0.7,0.1h2.4h0.7v3.1c0,0.2,0,0.5,0.1,0.7c0.1,0.2,0.2,0.4,0.4,0.6c0.2,0.2,0.4,0.3,0.6,0.4c0.4,0.2,0.9,0.2,1.4,0
		c0.2-0.1,0.4-0.2,0.6-0.4c0.2-0.2,0.3-0.4,0.4-0.6c0.1-0.2,0.1-0.5,0.1-0.7v-3.1H88c0.2,0,0.5,0,0.7-0.1c0.2-0.1,0.4-0.2,0.6-0.4
		c0.2-0.2,0.3-0.4,0.4-0.6c0.1-0.2,0.1-0.5,0.1-0.7c0-0.2,0-0.5-0.1-0.7C89.6,20.9,89.5,20.7,89.3,20.5z"/>
</g>
</svg>
