<?xml version="1.0" encoding="utf-8"?>
<!-- Generator: Adobe Illustrator 25.4.1, SVG Export Plug-In . SVG Version: 6.00 Build 0)  -->
<svg version="1.2" baseProfile="tiny" id="Capa_1" xmlns="http://www.w3.org/2000/svg" xmlns:xlink="http://www.w3.org/1999/xlink"
	 x="0px" y="0px" viewBox="0 0 106.8 96.8" overflow="visible" xml:space="preserve">
<g>
	<path fill-rule="evenodd" fill="#FFFFFF" d="M99,25.1v-6.2l0,0l4.3-1.1c0.8-0.2,1.4-0.9,1.4-1.7c0-0.8-0.6-1.5-1.4-1.7L53.9,1.9
		c-0.3-0.1-0.6-0.1-0.9,0L3.4,14.3c-0.8,0.2-1.4,0.9-1.4,1.7c0,0.8,0.6,1.5,1.4,1.7l25.4,6.3l-0.1,0.1v16.7c0,1,0.4,1.9,1.1,2.6
		c0.7,0.7,1.6,1.1,2.6,1.1h42c1,0,1.9-0.4,2.6-1.1c0.7-0.7,1.1-1.6,1.1-2.6V24.1l0,0l17.3-4.3v5.3l0,0L90,34.2
		c-0.3,0.6-0.3,1.2,0,1.8c0.3,0.6,0.9,0.9,1.6,0.9H103c0.6,0,1.2-0.3,1.6-0.9c0.3-0.6,0.3-1.3,0-1.8L99,25.1z M74.5,40.9H32.3V20.2
		l0,0c7-2.2,14.1-3.3,21-3.3c0,0,0.1,0,0.1,0c7,0,14,1.1,20.9,3.3h0l0,0.1V40.9z M95.3,16.1l-17.3,4.3v-1.5c0-0.8-0.5-1.5-1.2-1.7
		c-7.7-2.6-15.6-4-23.4-4c0,0-0.1,0-0.1,0c-7.7,0-15.6,1.3-23.4,4c-0.7,0.2-1.2,0.9-1.2,1.7v1.5l-17.5-4.4l0.2-0.1L53.4,5.5l0,0
		l42.1,10.5L95.3,16.1z M94.7,33.3L94.7,33.3l2.5-4.1l0,0l0,0v0l0.2,0l-0.1,0.1l2.5,4.1H94.7z"/>
	<circle fill-rule="evenodd" fill="#FFFFFF" cx="20" cy="81.5" r="1.8"/>
	<path fill-rule="evenodd" fill="#FFFFFF" d="M95.8,59.9c-0.2,0-0.3,0-0.5,0l-21.9,1.6c-0.6,0-0.8,0.1-0.9,0.1c0,0,0,0,0,0l0,0l0,0
		L63,62.3l0,0c-0.3-0.3-0.8-0.5-1.3-0.5h-4.1l-2.9-2.9c-0.3-0.3-0.8-0.5-1.3-0.5c-0.5,0-0.9,0.2-1.3,0.5l-2.9,2.9h-4.1
		c-0.5,0-0.9,0.2-1.3,0.5l0,0l0,0l-32.4-2.4c-0.2,0-0.3,0-0.5,0c-1.6,0-3.2,0.6-4.4,1.7c-1.3,1.2-2.1,3-2.1,4.8v11.1
		c0,1.8,0.8,3.5,2.1,4.8c1.2,1.1,2.8,1.7,4.4,1.7c0.2,0,0.3,0,0.5,0l3.2-0.2c0.5,0,0.9-0.3,1.2-0.6c0.3-0.4,0.5-0.8,0.4-1.3
		c-0.1-0.9-0.9-1.7-1.8-1.7c0,0-0.1,0-0.1,0l-3.2,0.2c-0.1,0-0.1,0-0.2,0c-0.7,0-1.5-0.3-2-0.8c-0.6-0.6-0.9-1.3-0.9-2.1V66.4
		c0-0.8,0.3-1.6,0.9-2.1c0.6-0.6,1.4-0.8,2.2-0.8l32.2,2.4v1.8l-2.9,2.9c-0.3,0.3-0.5,0.8-0.5,1.3c0,0.5,0.2,0.9,0.5,1.3l2.9,2.9
		l0,0L42.1,78l0,0l-16.7,1.2c-1,0.1-1.7,0.9-1.7,1.9c0.1,0.9,0.9,1.7,1.8,1.7c0,0,0.1,0,0.1,0l14.3-1.1l-0.1,0.1l-3.3,5.6
		c-0.3,0.5-0.3,1.2,0,1.7c0.3,0.6,0.8,0.9,1.5,0.9l4.4,0.3l0,0l2.4,3.6c0.3,0.5,0.9,0.8,1.5,0.8c0,0,0,0,0.1,0
		c0.6,0,1.2-0.4,1.5-0.9l5-8.6l0,0c0.3,0.1,0.7,0.1,1,0l0,0l0,0l5,8.6c0.3,0.5,0.9,0.9,1.5,0.9c0,0,0,0,0.1,0c0.6,0,1.2-0.3,1.5-0.8
		l2.4-3.7l0,0l4.3-0.3c0.6,0,1.2-0.4,1.5-0.9c0.3-0.6,0.3-1.2,0-1.7l-3.3-5.7l0.1,0L95.3,84c1.8,0.1,3.6-0.5,4.9-1.7
		c1.3-1.2,2.1-3,2.1-4.8V66.4c0-1.8-0.8-3.5-2.1-4.8C99,60.5,97.4,59.9,95.8,59.9z M50.1,83l-3.9,6.7l-0.1-0.1l-1.3-1.9
		c-0.3-0.5-0.8-0.8-1.4-0.8l-2.4-0.1l0-0.1l2.8-4.9v0l0.2,0l0,0c0.3,0.2,0.6,0.2,0.9,0.2h4.1L50.1,83L50.1,83z M53.4,81.2L53.4,81.2
		L51.2,79c-0.3-0.3-0.8-0.5-1.3-0.5h-3.1v-3.1c0-0.5-0.2-0.9-0.5-1.3l-2.2-2.2l0,0l2.1-2.1c0.3-0.3,0.5-0.8,0.5-1.3v-3.1H50
		c0.5,0,0.9-0.2,1.3-0.5l2.2-2.2l0,0l2.1,2.1c0.3,0.3,0.8,0.5,1.3,0.5H60v3.1c0,0.5,0.2,0.9,0.5,1.3l2.2,2.2l0,0l-2.1,2.1
		c-0.3,0.3-0.5,0.8-0.5,1.3v3.1h-3.1c-0.5,0-0.9,0.2-1.3,0.5L53.4,81.2z M63.3,87c-0.6,0-1.1,0.3-1.4,0.8l-1.3,2l0-0.1L56.7,83l0,0
		l0.9-0.9h4.1c0.3,0,0.6-0.1,0.9-0.2v0l0.1,0l0,0.1l0,0l2.9,5L63.3,87z M98.7,77.5c0,0.8-0.3,1.6-0.9,2.1c-0.5,0.5-1.3,0.8-2,0.8
		c-0.1,0-0.1,0-0.2,0l-30.8-2.3l0,0l-1.1-2l0,0l2.8-2.9c0.3-0.3,0.5-0.8,0.5-1.3c0-0.5-0.2-0.9-0.5-1.3l-2.9-2.9v-1.8l0.1,0l9.1-0.7
		l0,0c0.1,0,0.4,0,1-0.1c0.6,0,1.5-0.1,2.6-0.2c2.1-0.2,5-0.4,7.9-0.6c5.7-0.4,11.5-0.9,11.5-0.9c0.8-0.1,1.6,0.2,2.2,0.8
		c0.6,0.6,0.9,1.3,0.9,2.1V77.5z"/>
</g>
</svg>
